<mxfile host="65bd71144e">
    <diagram id="yVVpR8ncG8i5YpuEsJS-" name="Page-1">
        <mxGraphModel dx="2139" dy="1809" grid="1" gridSize="10" guides="1" tooltips="1" connect="1" arrows="1" fold="1" page="1" pageScale="1" pageWidth="827" pageHeight="1169" math="0" shadow="0">
            <root>
                <mxCell id="0"/>
                <mxCell id="1" parent="0"/>
                <mxCell id="27" style="edgeStyle=none;html=1;exitX=0;exitY=0.5;exitDx=0;exitDy=0;entryX=1;entryY=0.5;entryDx=0;entryDy=0;fontSize=11;strokeWidth=2;dashed=1;strokeColor=#66FF66;" parent="1" source="21" target="19" edge="1">
                    <mxGeometry relative="1" as="geometry"/>
                </mxCell>
                <mxCell id="21" value="" style="rounded=1;whiteSpace=wrap;html=1;dashed=1;strokeWidth=2;fillColor=none;strokeColor=#66FF66;" parent="1" vertex="1">
                    <mxGeometry x="170" y="150" width="110" height="70" as="geometry"/>
                </mxCell>
                <mxCell id="2" value="&lt;font color=&quot;#ff3333&quot; style=&quot;font-size: 18px;&quot;&gt;&lt;span style=&quot;font-size: 18px;&quot;&gt;Représentation du site CRUD - MERN without Contexts - Next Auth Next JS 13&lt;/span&gt;&lt;/font&gt;" style="rounded=1;whiteSpace=wrap;html=1;fontStyle=5;fontSize=18;fillColor=none;strokeColor=none;" parent="1" vertex="1">
                    <mxGeometry x="-276" y="-50" width="690" height="60" as="geometry"/>
                </mxCell>
                <mxCell id="113" style="edgeStyle=none;html=1;exitX=0;exitY=1;exitDx=0;exitDy=0;entryX=1;entryY=0;entryDx=0;entryDy=0;fontSize=18;fontColor=#FF3333;strokeColor=none;strokeWidth=2;" edge="1" parent="1" source="3" target="44">
                    <mxGeometry relative="1" as="geometry"/>
                </mxCell>
                <mxCell id="114" style="edgeStyle=none;html=1;exitX=0;exitY=1;exitDx=0;exitDy=0;entryX=1;entryY=0;entryDx=0;entryDy=0;strokeWidth=2;fontSize=18;fontColor=#FF3333;strokeColor=#FFFF99;" edge="1" parent="1" source="3" target="44">
                    <mxGeometry relative="1" as="geometry"/>
                </mxCell>
                <mxCell id="116" style="edgeStyle=none;html=1;exitX=0.5;exitY=1;exitDx=0;exitDy=0;strokeColor=#3333FF;strokeWidth=2;fontSize=18;fontColor=#FF3333;dashed=1;" edge="1" parent="1" source="3" target="99">
                    <mxGeometry relative="1" as="geometry"/>
                </mxCell>
                <mxCell id="3" value="&lt;font style=&quot;font-size: 11px;&quot;&gt;&lt;b style=&quot;&quot;&gt;Layout&lt;/b&gt;&lt;/font&gt;" style="rounded=1;whiteSpace=wrap;html=1;" parent="1" vertex="1">
                    <mxGeometry x="180" y="160" width="90" height="50" as="geometry"/>
                </mxCell>
                <mxCell id="30" style="edgeStyle=none;html=1;exitX=0;exitY=0.5;exitDx=0;exitDy=0;entryX=1;entryY=0.5;entryDx=0;entryDy=0;strokeColor=#66FF66;strokeWidth=2;fontSize=11;dashed=1;" parent="1" source="19" target="22" edge="1">
                    <mxGeometry relative="1" as="geometry"/>
                </mxCell>
                <mxCell id="34" style="edgeStyle=orthogonalEdgeStyle;html=1;exitX=0;exitY=0.5;exitDx=0;exitDy=0;entryX=1;entryY=0.5;entryDx=0;entryDy=0;dashed=1;strokeColor=none;strokeWidth=2;fontSize=11;" parent="1" source="19" target="24" edge="1">
                    <mxGeometry relative="1" as="geometry"/>
                </mxCell>
                <mxCell id="35" style="edgeStyle=orthogonalEdgeStyle;html=1;exitX=0;exitY=0.5;exitDx=0;exitDy=0;entryX=1;entryY=0.5;entryDx=0;entryDy=0;dashed=1;strokeColor=#66FF66;strokeWidth=2;fontSize=11;" parent="1" source="19" target="24" edge="1">
                    <mxGeometry relative="1" as="geometry"/>
                </mxCell>
                <mxCell id="19" value="&lt;font style=&quot;font-size: 11px;&quot;&gt;&lt;b style=&quot;&quot;&gt;GlobalProvider (children)&lt;/b&gt;&lt;/font&gt;" style="rounded=1;whiteSpace=wrap;html=1;strokeColor=#66FF66;dashed=1;strokeWidth=2;" parent="1" vertex="1">
                    <mxGeometry x="20" y="165" width="100" height="40" as="geometry"/>
                </mxCell>
                <mxCell id="121" style="html=1;exitX=1;exitY=0.5;exitDx=0;exitDy=0;entryX=0;entryY=0.5;entryDx=0;entryDy=0;strokeColor=#FFFF99;strokeWidth=2;fontSize=18;fontColor=#FF3333;edgeStyle=orthogonalEdgeStyle;" edge="1" parent="1" source="20" target="110">
                    <mxGeometry relative="1" as="geometry"/>
                </mxCell>
                <mxCell id="122" style="edgeStyle=orthogonalEdgeStyle;html=1;exitX=1;exitY=0.5;exitDx=0;exitDy=0;entryX=0;entryY=0.5;entryDx=0;entryDy=0;strokeColor=#FFFF99;strokeWidth=2;fontSize=18;fontColor=#FF3333;" edge="1" parent="1" source="20" target="94">
                    <mxGeometry relative="1" as="geometry"/>
                </mxCell>
                <mxCell id="123" style="edgeStyle=orthogonalEdgeStyle;html=1;exitX=1;exitY=0.5;exitDx=0;exitDy=0;entryX=0;entryY=0.5;entryDx=0;entryDy=0;dashed=1;strokeColor=#FF3333;strokeWidth=2;fontSize=18;fontColor=#FF3333;" edge="1" parent="1" source="20" target="102">
                    <mxGeometry relative="1" as="geometry"/>
                </mxCell>
                <mxCell id="124" style="edgeStyle=orthogonalEdgeStyle;html=1;exitX=1;exitY=0.5;exitDx=0;exitDy=0;entryX=0;entryY=0.5;entryDx=0;entryDy=0;dashed=1;strokeColor=#FF3333;strokeWidth=2;fontSize=18;fontColor=#FF3333;" edge="1" parent="1" source="20" target="103">
                    <mxGeometry relative="1" as="geometry"/>
                </mxCell>
                <mxCell id="20" value="&lt;font style=&quot;font-size: 11px;&quot;&gt;&lt;b style=&quot;&quot;&gt;Navbar&lt;/b&gt;&lt;/font&gt;" style="rounded=1;whiteSpace=wrap;html=1;strokeColor=#3333FF;dashed=1;strokeWidth=2;" parent="1" vertex="1">
                    <mxGeometry x="175" y="360" width="100" height="40" as="geometry"/>
                </mxCell>
                <mxCell id="22" value="&lt;font style=&quot;font-size: 11px;&quot;&gt;&lt;b style=&quot;&quot;&gt;AuthProvider&lt;/b&gt;&lt;/font&gt;" style="rounded=1;whiteSpace=wrap;html=1;strokeColor=#66FF66;dashed=1;strokeWidth=2;" parent="1" vertex="1">
                    <mxGeometry x="-150" y="165" width="100" height="40" as="geometry"/>
                </mxCell>
                <mxCell id="24" value="&lt;font style=&quot;font-size: 11px;&quot;&gt;&lt;b style=&quot;&quot;&gt;ThemeProvider&lt;/b&gt;&lt;/font&gt;" style="rounded=1;whiteSpace=wrap;html=1;strokeColor=#66FF66;dashed=1;strokeWidth=2;" parent="1" vertex="1">
                    <mxGeometry x="-150" y="100" width="100" height="40" as="geometry"/>
                </mxCell>
                <mxCell id="39" value="&lt;span style=&quot;font-size: 11px;&quot;&gt;&lt;b&gt;Home&lt;/b&gt;&lt;/span&gt;" style="rounded=1;whiteSpace=wrap;html=1;strokeColor=#FFFF99;strokeWidth=2;" parent="1" vertex="1">
                    <mxGeometry x="-150" y="257.5" width="120" height="60" as="geometry"/>
                </mxCell>
                <mxCell id="40" value="&lt;u style=&quot;&quot;&gt;&lt;b style=&quot;&quot;&gt;&lt;font style=&quot;font-size: 16px;&quot; color=&quot;#ff99cc&quot;&gt;Légende :&lt;/font&gt;&lt;/b&gt;&lt;/u&gt;" style="rounded=1;whiteSpace=wrap;html=1;align=center;horizontal=1;verticalAlign=top;" parent="1" vertex="1">
                    <mxGeometry x="-400" y="71.25" width="220" height="360" as="geometry"/>
                </mxCell>
                <mxCell id="115" style="edgeStyle=none;html=1;exitX=0;exitY=0.5;exitDx=0;exitDy=0;entryX=1;entryY=0.5;entryDx=0;entryDy=0;strokeColor=#FFFF99;strokeWidth=2;fontSize=18;fontColor=#FF3333;" edge="1" parent="1" source="44" target="39">
                    <mxGeometry relative="1" as="geometry"/>
                </mxCell>
                <mxCell id="44" value="&lt;font style=&quot;font-size: 11px;&quot;&gt;&lt;b style=&quot;&quot;&gt;page.jsx (Principal)&lt;/b&gt;&lt;/font&gt;" style="rounded=1;whiteSpace=wrap;html=1;strokeColor=#FFFF99;strokeWidth=2;" parent="1" vertex="1">
                    <mxGeometry x="10" y="257.5" width="120" height="60" as="geometry"/>
                </mxCell>
                <mxCell id="49" value="&lt;font size=&quot;1&quot; style=&quot;&quot;&gt;&lt;b style=&quot;font-size: 12px;&quot;&gt;Pages&lt;/b&gt;&lt;/font&gt;" style="rounded=1;whiteSpace=wrap;html=1;strokeWidth=2;strokeColor=#FFFF99;" parent="1" vertex="1">
                    <mxGeometry x="-410" y="111.25" width="70" height="30" as="geometry"/>
                </mxCell>
                <mxCell id="50" value="&lt;font size=&quot;1&quot; style=&quot;&quot;&gt;&lt;b style=&quot;font-size: 12px;&quot;&gt;Functions, props,&amp;nbsp;&lt;/b&gt;&lt;/font&gt;" style="rounded=1;whiteSpace=wrap;html=1;strokeWidth=2;strokeColor=#FFFFFF;" parent="1" vertex="1">
                    <mxGeometry x="-370" y="331.25" width="120" height="50" as="geometry"/>
                </mxCell>
                <mxCell id="51" value="&lt;font size=&quot;1&quot; style=&quot;&quot;&gt;&lt;b style=&quot;font-size: 12px;&quot;&gt;Contexts&lt;/b&gt;&lt;/font&gt;" style="rounded=1;whiteSpace=wrap;html=1;strokeWidth=2;strokeColor=#99004D;dashed=1;" parent="1" vertex="1">
                    <mxGeometry x="-410" y="201.25" width="70" height="30" as="geometry"/>
                </mxCell>
                <mxCell id="52" value="&lt;font size=&quot;1&quot; style=&quot;&quot;&gt;&lt;b style=&quot;font-size: 12px;&quot;&gt;Providers&lt;/b&gt;&lt;/font&gt;" style="rounded=1;whiteSpace=wrap;html=1;strokeWidth=2;strokeColor=#66FF66;dashed=1;" parent="1" vertex="1">
                    <mxGeometry x="-300" y="161.25" width="70" height="30" as="geometry"/>
                </mxCell>
                <mxCell id="53" value="&lt;font size=&quot;1&quot; style=&quot;&quot;&gt;&lt;b style=&quot;font-size: 12px;&quot;&gt;Layouts&lt;/b&gt;&lt;/font&gt;" style="rounded=1;whiteSpace=wrap;html=1;strokeWidth=2;strokeColor=#3333FF;" parent="1" vertex="1">
                    <mxGeometry x="-410" y="151.25" width="70" height="30" as="geometry"/>
                </mxCell>
                <mxCell id="54" value="&lt;font size=&quot;1&quot; style=&quot;&quot;&gt;&lt;b style=&quot;font-size: 12px;&quot;&gt;Commons&lt;/b&gt;&lt;/font&gt;" style="rounded=1;whiteSpace=wrap;html=1;strokeWidth=2;strokeColor=#FF9933;" parent="1" vertex="1">
                    <mxGeometry x="-300" y="111.25" width="70" height="30" as="geometry"/>
                </mxCell>
                <mxCell id="65" value="LINKS" style="endArrow=classic;html=1;dashed=1;strokeColor=#3333FF;strokeWidth=3;fontSize=12;fontColor=#FF99CC;" parent="1" edge="1">
                    <mxGeometry relative="1" as="geometry">
                        <mxPoint x="-380" y="271.25" as="sourcePoint"/>
                        <mxPoint x="-280" y="271.25" as="targetPoint"/>
                    </mxGeometry>
                </mxCell>
                <mxCell id="68" value="" style="rounded=0;whiteSpace=wrap;html=1;strokeColor=default;strokeWidth=2;fontSize=12;fillColor=#eeeeee;" parent="1" vertex="1">
                    <mxGeometry x="-390" y="248.75" width="160" height="5" as="geometry"/>
                </mxCell>
                <mxCell id="69" value="" style="rounded=0;whiteSpace=wrap;html=1;strokeColor=default;strokeWidth=2;fontSize=12;fillColor=#eeeeee;" parent="1" vertex="1">
                    <mxGeometry x="-390" y="291.25" width="160" height="5" as="geometry"/>
                </mxCell>
                <mxCell id="80" value="&lt;font style=&quot;font-size: 11px;&quot;&gt;&lt;b style=&quot;&quot;&gt;dashboard.jsx&lt;/b&gt;&lt;/font&gt;" style="rounded=1;whiteSpace=wrap;html=1;strokeColor=#FFFF99;strokeWidth=2;" parent="1" vertex="1">
                    <mxGeometry x="490" y="410" width="100" height="30" as="geometry"/>
                </mxCell>
                <mxCell id="127" style="edgeStyle=orthogonalEdgeStyle;html=1;exitX=0.5;exitY=1;exitDx=0;exitDy=0;entryX=0.5;entryY=0;entryDx=0;entryDy=0;strokeColor=#FFFF99;strokeWidth=2;fontSize=18;fontColor=#FF3333;startArrow=classic;startFill=1;" edge="1" parent="1" source="81" target="125">
                    <mxGeometry relative="1" as="geometry"/>
                </mxCell>
                <mxCell id="81" value="&lt;font style=&quot;font-size: 11px;&quot;&gt;&lt;b style=&quot;&quot;&gt;login.jsx&lt;/b&gt;&lt;/font&gt;" style="rounded=1;whiteSpace=wrap;html=1;strokeColor=#FFFF99;strokeWidth=2;" parent="1" vertex="1">
                    <mxGeometry x="500" y="496.25" width="80" height="37.5" as="geometry"/>
                </mxCell>
                <mxCell id="135" style="edgeStyle=orthogonalEdgeStyle;html=1;exitX=0.5;exitY=0;exitDx=0;exitDy=0;entryX=0.5;entryY=1;entryDx=0;entryDy=0;strokeColor=#FFFF99;strokeWidth=2;fontSize=18;fontColor=#FF3333;startArrow=none;startFill=0;" edge="1" parent="1" source="94" target="132">
                    <mxGeometry relative="1" as="geometry"/>
                </mxCell>
                <mxCell id="94" value="&lt;font style=&quot;font-size: 11px;&quot;&gt;&lt;b style=&quot;&quot;&gt;categories.jsx&lt;/b&gt;&lt;/font&gt;" style="rounded=1;whiteSpace=wrap;html=1;strokeColor=#FFFF99;strokeWidth=2;" parent="1" vertex="1">
                    <mxGeometry x="340" y="232.5" width="80" height="30" as="geometry"/>
                </mxCell>
                <mxCell id="117" style="edgeStyle=none;html=1;exitX=0.5;exitY=1;exitDx=0;exitDy=0;entryX=0.5;entryY=0;entryDx=0;entryDy=0;dashed=1;strokeColor=#3333FF;strokeWidth=2;fontSize=18;fontColor=#FF3333;" edge="1" parent="1" source="99" target="20">
                    <mxGeometry relative="1" as="geometry"/>
                </mxCell>
                <mxCell id="118" style="edgeStyle=none;html=1;exitX=0;exitY=1;exitDx=0;exitDy=0;entryX=1;entryY=0;entryDx=0;entryDy=0;dashed=1;strokeColor=#3333FF;strokeWidth=2;fontSize=18;fontColor=#FF3333;" edge="1" parent="1" source="99" target="100">
                    <mxGeometry relative="1" as="geometry"/>
                </mxCell>
                <mxCell id="99" value="&lt;font style=&quot;font-size: 11px;&quot;&gt;&lt;b style=&quot;&quot;&gt;AppLayout&lt;/b&gt;&lt;/font&gt;" style="rounded=1;whiteSpace=wrap;html=1;strokeColor=#3333FF;dashed=1;strokeWidth=2;" vertex="1" parent="1">
                    <mxGeometry x="175" y="262.5" width="100" height="40" as="geometry"/>
                </mxCell>
                <mxCell id="100" value="&lt;font style=&quot;font-size: 11px;&quot;&gt;&lt;b style=&quot;&quot;&gt;Footer&lt;/b&gt;&lt;/font&gt;" style="rounded=1;whiteSpace=wrap;html=1;strokeColor=#3333FF;dashed=1;strokeWidth=2;" vertex="1" parent="1">
                    <mxGeometry x="30" y="360" width="100" height="40" as="geometry"/>
                </mxCell>
                <mxCell id="101" value="&lt;font size=&quot;1&quot; style=&quot;&quot;&gt;&lt;b style=&quot;font-size: 12px;&quot;&gt;Condition (if/else)&lt;/b&gt;&lt;/font&gt;" style="rounded=1;whiteSpace=wrap;html=1;strokeWidth=2;strokeColor=#FF3333;dashed=1;" vertex="1" parent="1">
                    <mxGeometry x="-300" y="201.25" width="70" height="30" as="geometry"/>
                </mxCell>
                <mxCell id="128" style="edgeStyle=orthogonalEdgeStyle;html=1;exitX=1;exitY=0.5;exitDx=0;exitDy=0;entryX=0;entryY=0.5;entryDx=0;entryDy=0;strokeColor=#FFFF99;strokeWidth=2;fontSize=18;fontColor=#FF3333;startArrow=none;startFill=0;" edge="1" parent="1" source="102" target="80">
                    <mxGeometry relative="1" as="geometry"/>
                </mxCell>
                <mxCell id="102" value="&lt;font size=&quot;1&quot; style=&quot;&quot;&gt;&lt;b style=&quot;font-size: 12px;&quot;&gt;if &quot;authenticated&quot;&lt;/b&gt;&lt;/font&gt;" style="rounded=1;whiteSpace=wrap;html=1;strokeWidth=2;strokeColor=#FF3333;dashed=1;" vertex="1" parent="1">
                    <mxGeometry x="330" y="410" width="120" height="30" as="geometry"/>
                </mxCell>
                <mxCell id="129" style="edgeStyle=orthogonalEdgeStyle;html=1;exitX=1;exitY=0.5;exitDx=0;exitDy=0;entryX=0;entryY=0.5;entryDx=0;entryDy=0;strokeColor=#FFFF99;strokeWidth=2;fontSize=18;fontColor=#FF3333;startArrow=none;startFill=0;" edge="1" parent="1" source="103" target="81">
                    <mxGeometry relative="1" as="geometry"/>
                </mxCell>
                <mxCell id="103" value="&lt;font size=&quot;1&quot; style=&quot;&quot;&gt;&lt;b style=&quot;font-size: 12px;&quot;&gt;else &quot;authenticated&quot;&lt;/b&gt;&lt;/font&gt;" style="rounded=1;whiteSpace=wrap;html=1;strokeWidth=2;strokeColor=#FF3333;dashed=1;" vertex="1" parent="1">
                    <mxGeometry x="330" y="500" width="120" height="30" as="geometry"/>
                </mxCell>
                <mxCell id="142" style="edgeStyle=orthogonalEdgeStyle;html=1;exitX=0.5;exitY=0;exitDx=0;exitDy=0;strokeColor=#FFFF99;strokeWidth=2;fontSize=18;fontColor=#FF3333;startArrow=none;startFill=0;" edge="1" parent="1" source="106">
                    <mxGeometry relative="1" as="geometry">
                        <mxPoint x="590" y="200" as="targetPoint"/>
                    </mxGeometry>
                </mxCell>
                <mxCell id="106" value="&lt;font style=&quot;font-size: 11px;&quot;&gt;&lt;b style=&quot;&quot;&gt;BlogVSMobIle.jsx&lt;/b&gt;&lt;/font&gt;" style="rounded=1;whiteSpace=wrap;html=1;strokeWidth=2;strokeColor=#FFFF99;" vertex="1" parent="1">
                    <mxGeometry x="590" y="240" width="120" height="22.5" as="geometry"/>
                </mxCell>
                <mxCell id="138" style="edgeStyle=orthogonalEdgeStyle;html=1;exitX=0.5;exitY=0;exitDx=0;exitDy=0;entryX=0.5;entryY=1;entryDx=0;entryDy=0;strokeColor=#FFFF99;strokeWidth=2;fontSize=18;fontColor=#FF3333;startArrow=none;startFill=0;" edge="1" parent="1" source="108" target="109">
                    <mxGeometry relative="1" as="geometry"/>
                </mxCell>
                <mxCell id="139" style="edgeStyle=orthogonalEdgeStyle;html=1;exitX=0.5;exitY=0;exitDx=0;exitDy=0;entryX=0.5;entryY=1;entryDx=0;entryDy=0;strokeColor=#FFFF99;strokeWidth=2;fontSize=18;fontColor=#FF3333;startArrow=none;startFill=0;" edge="1" parent="1" source="108" target="106">
                    <mxGeometry relative="1" as="geometry"/>
                </mxCell>
                <mxCell id="108" value="&lt;font style=&quot;font-size: 11px;&quot;&gt;&lt;b style=&quot;&quot;&gt;SwitchResponsiveBlog.jsx&lt;/b&gt;&lt;/font&gt;" style="rounded=1;whiteSpace=wrap;html=1;strokeColor=#FFFF99;strokeWidth=2;" vertex="1" parent="1">
                    <mxGeometry x="460" y="307.5" width="200" height="30" as="geometry"/>
                </mxCell>
                <mxCell id="141" style="edgeStyle=orthogonalEdgeStyle;html=1;exitX=0.5;exitY=0;exitDx=0;exitDy=0;strokeColor=#FFFF99;strokeWidth=2;fontSize=18;fontColor=#FF3333;startArrow=none;startFill=0;" edge="1" parent="1" source="109" target="111">
                    <mxGeometry relative="1" as="geometry"/>
                </mxCell>
                <mxCell id="109" value="&lt;b style=&quot;font-size: 11px;&quot;&gt;blogVSDesktop.jsx&lt;/b&gt;" style="rounded=1;whiteSpace=wrap;html=1;strokeWidth=2;strokeColor=#FFFF99;" vertex="1" parent="1">
                    <mxGeometry x="460" y="240" width="120" height="22.5" as="geometry"/>
                </mxCell>
                <mxCell id="137" style="edgeStyle=orthogonalEdgeStyle;html=1;exitX=1;exitY=0.25;exitDx=0;exitDy=0;entryX=0;entryY=0.5;entryDx=0;entryDy=0;strokeColor=#FFFF99;strokeWidth=2;fontSize=18;fontColor=#FF3333;startArrow=none;startFill=0;" edge="1" parent="1" source="110" target="108">
                    <mxGeometry relative="1" as="geometry"/>
                </mxCell>
                <mxCell id="110" value="&lt;font style=&quot;font-size: 11px;&quot;&gt;&lt;b style=&quot;&quot;&gt;blog.jsx&lt;/b&gt;&lt;/font&gt;" style="rounded=1;whiteSpace=wrap;html=1;strokeColor=#FFFF99;strokeWidth=2;" vertex="1" parent="1">
                    <mxGeometry x="340" y="317.5" width="80" height="20" as="geometry"/>
                </mxCell>
                <mxCell id="143" style="edgeStyle=orthogonalEdgeStyle;html=1;exitX=1;exitY=0.5;exitDx=0;exitDy=0;entryX=0;entryY=0.5;entryDx=0;entryDy=0;strokeColor=#FFFF99;strokeWidth=2;fontSize=18;fontColor=#FF3333;startArrow=none;startFill=0;" edge="1" parent="1" source="111" target="112">
                    <mxGeometry relative="1" as="geometry"/>
                </mxCell>
                <mxCell id="111" value="&lt;b style=&quot;font-size: 11px;&quot;&gt;blogPost.jsx&lt;/b&gt;" style="rounded=1;whiteSpace=wrap;html=1;strokeWidth=2;strokeColor=#FFFF99;" vertex="1" parent="1">
                    <mxGeometry x="530" y="170" width="120" height="30" as="geometry"/>
                </mxCell>
                <mxCell id="112" value="&lt;b style=&quot;font-size: 11px;&quot;&gt;blogPostItem.jsx&lt;/b&gt;" style="rounded=1;whiteSpace=wrap;html=1;strokeColor=#FFFF99;strokeWidth=2;" vertex="1" parent="1">
                    <mxGeometry x="690" y="175" width="120" height="20" as="geometry"/>
                </mxCell>
                <mxCell id="125" value="&lt;font style=&quot;font-size: 11px;&quot;&gt;&lt;b style=&quot;&quot;&gt;register.jsx&lt;/b&gt;&lt;/font&gt;" style="rounded=1;whiteSpace=wrap;html=1;strokeColor=#FFFF99;strokeWidth=2;" vertex="1" parent="1">
                    <mxGeometry x="500" y="566" width="80" height="37.5" as="geometry"/>
                </mxCell>
                <mxCell id="131" value="&lt;font style=&quot;font-size: 11px;&quot;&gt;&lt;b style=&quot;&quot;&gt;PageCategoryVSMobile.jsx&lt;/b&gt;&lt;/font&gt;" style="rounded=1;whiteSpace=wrap;html=1;strokeColor=#FFFF99;strokeWidth=2;" vertex="1" parent="1">
                    <mxGeometry x="210" y="70" width="180" height="30" as="geometry"/>
                </mxCell>
                <mxCell id="132" value="&lt;font style=&quot;font-size: 11px;&quot;&gt;&lt;b style=&quot;&quot;&gt;category.jsx&lt;/b&gt;&lt;/font&gt;" style="rounded=1;whiteSpace=wrap;html=1;strokeColor=#FFFF99;strokeWidth=2;" vertex="1" parent="1">
                    <mxGeometry x="340" y="160" width="80" height="30" as="geometry"/>
                </mxCell>
                <mxCell id="133" value="&lt;font style=&quot;font-size: 11px;&quot;&gt;&lt;b style=&quot;&quot;&gt;PageCategoryVSDesktop.jsx&lt;/b&gt;&lt;/font&gt;" style="rounded=1;whiteSpace=wrap;html=1;strokeColor=#FFFF99;strokeWidth=2;" vertex="1" parent="1">
                    <mxGeometry x="430" y="70" width="180" height="30" as="geometry"/>
                </mxCell>
            </root>
        </mxGraphModel>
    </diagram>
</mxfile>